<svg width="875" height="153" viewBox="0 0 875 153" fill="none" xmlns="http://www.w3.org/2000/svg">
<path d="M76.0137 137.531L61.5176 152.027L48.79 139.3L63.2861 124.804L76.0137 137.531ZM103.237 139.3L90.5098 152.027L76.0137 137.531L88.7412 124.804L103.237 139.3ZM76.0137 112.076L63.2861 124.804L27.2236 88.7412L39.9512 76.0137L76.0137 112.076ZM124.804 88.7412L88.7412 124.804L76.0137 112.076L112.076 76.0137L124.804 88.7412ZM27.2236 88.7412L12.7275 103.237L0 90.5098L14.4961 76.0137L27.2236 88.7412ZM152.027 90.5098L139.3 103.237L124.804 88.7412L137.531 76.0137L152.027 90.5098ZM27.2236 63.2861L14.4961 76.0137L0 61.5176L12.7275 48.79L27.2236 63.2861ZM76.0137 39.9512L39.9512 76.0137L27.2236 63.2861L63.2861 27.2236L76.0137 39.9512ZM124.804 63.2861L112.076 76.0137L76.0137 39.9512L88.7412 27.2236L124.804 63.2861ZM152.027 61.5176L137.531 76.0137L124.804 63.2861L139.3 48.79L152.027 61.5176ZM76.0137 14.4961L63.2861 27.2236L48.79 12.7275L61.5176 0L76.0137 14.4961ZM103.237 12.7275L88.7412 27.2236L76.0137 14.4961L90.5098 0L103.237 12.7275Z" fill="#EA8100"/>
<rect x="90.5098" y="2.12132" width="15" height="125" transform="rotate(45 90.5098 2.12132)" stroke="#EA8100" stroke-width="3"/>
<rect x="139.3" y="50.9118" width="15" height="125" transform="rotate(45 139.3 50.9118)" stroke="#EA8100" stroke-width="3"/>
<rect x="2.12132" y="61.5183" width="15" height="125" transform="rotate(-45 2.12132 61.5183)" stroke="#EA8100" stroke-width="3"/>
<rect x="50.9114" y="12.728" width="15" height="125" transform="rotate(-45 50.9114 12.728)" stroke="#EA8100" stroke-width="3"/>
<path d="M204.787 109.914C201.127 109.914 198.097 109.404 195.697 108.384C193.357 107.364 191.497 106.104 190.117 104.604C188.737 103.044 187.717 101.514 187.057 100.014C186.397 98.4539 185.977 97.1639 185.797 96.1439C185.617 95.1239 185.527 94.6139 185.527 94.6139H194.167C194.167 94.6139 194.257 95.0339 194.437 95.8739C194.677 96.6539 195.127 97.5839 195.787 98.6639C196.507 99.6839 197.587 100.614 199.027 101.454C200.527 102.234 202.507 102.624 204.967 102.624C207.787 102.624 209.977 101.964 211.537 100.644C213.097 99.2639 213.877 97.5839 213.877 95.6039C213.877 93.8639 213.247 92.4839 211.987 91.4639C210.787 90.4439 209.047 89.6639 206.767 89.1239L200.287 87.5939C197.887 86.9939 195.637 86.1839 193.537 85.1639C191.437 84.1439 189.727 82.7639 188.407 81.0239C187.147 79.2239 186.517 77.0039 186.517 74.3639C186.517 70.2839 188.047 66.9539 191.107 64.3739C194.167 61.7339 198.157 60.4139 203.077 60.4139C206.377 60.4139 209.107 60.8939 211.267 61.8539C213.427 62.7539 215.137 63.8939 216.397 65.2739C217.717 66.6539 218.677 68.0339 219.277 69.4139C219.937 70.7939 220.357 71.9639 220.537 72.9239C220.717 73.8239 220.807 74.2739 220.807 74.2739H212.527C212.527 74.2739 212.437 73.9439 212.257 73.2839C212.077 72.5639 211.657 71.7839 210.997 70.9439C210.397 70.0439 209.467 69.2639 208.207 68.6039C206.947 67.8839 205.267 67.5239 203.167 67.5239C200.287 67.5239 198.187 68.1839 196.867 69.5039C195.547 70.8239 194.887 72.2639 194.887 73.8239C194.887 75.3239 195.487 76.5539 196.687 77.5139C197.947 78.4139 199.567 79.1039 201.547 79.5839L208.117 81.1139C212.197 82.0739 215.557 83.6639 218.197 85.8839C220.897 88.0439 222.247 91.1639 222.247 95.2439C222.247 97.8839 221.557 100.344 220.177 102.624C218.797 104.844 216.817 106.614 214.237 107.934C211.657 109.254 208.507 109.914 204.787 109.914ZM251.502 109.914C246.582 109.914 242.862 108.654 240.342 106.134C237.882 103.614 236.652 100.074 236.652 95.5139V68.3339H228.102V61.3139H236.652V49.3439H245.202V61.3139H256.812V68.3339H245.202V95.5139C245.202 97.9139 245.862 99.6839 247.182 100.824C248.502 101.904 250.422 102.444 252.942 102.444C254.262 102.444 255.522 102.354 256.722 102.174C257.922 101.994 258.522 101.904 258.522 101.904V109.194C258.522 109.194 257.832 109.314 256.452 109.554C255.072 109.794 253.422 109.914 251.502 109.914ZM274.428 52.2239C272.808 52.2239 271.458 51.6839 270.378 50.6039C269.358 49.5239 268.848 48.2339 268.848 46.7339C268.848 45.1739 269.358 43.8539 270.378 42.7739C271.458 41.6939 272.808 41.1539 274.428 41.1539C275.988 41.1539 277.308 41.6939 278.388 42.7739C279.468 43.8539 280.008 45.1739 280.008 46.7339C280.008 48.2339 279.468 49.5239 278.388 50.6039C277.308 51.6839 275.988 52.2239 274.428 52.2239ZM270.198 109.014V61.3139H278.748V109.014H270.198ZM314.268 109.914C310.368 109.914 306.948 109.224 304.008 107.844C301.068 106.404 298.608 104.514 296.628 102.174C294.708 99.7739 293.238 97.1039 292.218 94.1639C291.258 91.2239 290.778 88.2239 290.778 85.1639C290.778 82.1039 291.258 79.1339 292.218 76.2539C293.178 73.3139 294.618 70.6439 296.538 68.2439C298.518 65.8439 300.978 63.9539 303.918 62.5739C306.858 61.1339 310.308 60.4139 314.268 60.4139C318.108 60.4139 321.288 60.9839 323.808 62.1239C326.328 63.2639 328.338 64.7039 329.838 66.4439C331.398 68.1239 332.538 69.8339 333.258 71.5739C334.038 73.2539 334.548 74.6639 334.788 75.8039C335.028 76.9439 335.148 77.5139 335.148 77.5139H326.868C326.868 77.5139 326.718 77.0339 326.418 76.0739C326.118 75.0539 325.548 73.9139 324.708 72.6539C323.868 71.3939 322.608 70.2839 320.928 69.3239C319.248 68.3039 317.028 67.7939 314.268 67.7939C310.968 67.7939 308.178 68.6339 305.898 70.3139C303.678 71.9339 301.998 74.0639 300.858 76.7039C299.778 79.3439 299.238 82.1639 299.238 85.1639C299.238 88.1639 299.778 90.9839 300.858 93.6239C301.998 96.2639 303.678 98.4239 305.898 100.104C308.178 101.724 310.968 102.534 314.268 102.534C317.028 102.534 319.248 102.054 320.928 101.094C322.608 100.074 323.868 98.9339 324.708 97.6739C325.548 96.4139 326.118 95.3039 326.418 94.3439C326.718 93.3239 326.868 92.8139 326.868 92.8139H335.148C335.148 92.8139 335.028 93.3839 334.788 94.5239C334.548 95.6639 334.038 97.1039 333.258 98.8439C332.538 100.524 331.398 102.234 329.838 103.974C328.338 105.654 326.328 107.064 323.808 108.204C321.288 109.344 318.108 109.914 314.268 109.914ZM346.873 109.014V40.6139H355.423V80.3939L374.413 61.3139H385.573L363.613 83.0039L386.023 109.014H375.133L355.423 86.0639V109.014H346.873ZM394.995 109.014V61.3139H403.545V68.2439H403.905C404.385 67.3439 405.135 66.2939 406.155 65.0939C407.175 63.8339 408.555 62.7539 410.295 61.8539C412.095 60.8939 414.345 60.4139 417.045 60.4139C420.585 60.4139 423.555 61.2839 425.955 63.0239C428.415 64.7039 430.245 66.9839 431.445 69.8639H431.535C432.855 67.2239 434.715 65.0039 437.115 63.2039C439.575 61.3439 442.755 60.4139 446.655 60.4139C451.815 60.4139 455.775 62.1839 458.535 65.7239C461.355 69.2039 462.765 73.7039 462.765 79.2239V109.014H454.215V79.6739C454.215 76.1339 453.375 73.2839 451.695 71.1239C450.015 68.9039 447.585 67.7939 444.405 67.7939C441.645 67.7939 439.425 68.5439 437.745 70.0439C436.125 71.5439 434.955 73.4039 434.235 75.6239C433.515 77.8439 433.155 80.0639 433.155 82.2839V109.014H424.605V79.6739C424.605 76.1339 423.765 73.2839 422.085 71.1239C420.465 68.9039 418.035 67.7939 414.795 67.7939C412.035 67.7939 409.815 68.5439 408.135 70.0439C406.515 71.5439 405.345 73.4339 404.625 75.7139C403.905 77.9339 403.545 80.1239 403.545 82.2839V109.014H394.995ZM497.017 109.914C491.917 109.914 487.627 108.744 484.147 106.404C480.667 104.004 478.027 100.914 476.227 97.1339C474.427 93.3539 473.527 89.3639 473.527 85.1639C473.527 80.9039 474.427 76.9139 476.227 73.1939C478.027 69.4139 480.667 66.3539 484.147 64.0139C487.627 61.6139 491.917 60.4139 497.017 60.4139C502.117 60.4139 506.407 61.6139 509.887 64.0139C513.367 66.3539 516.007 69.4139 517.807 73.1939C519.607 76.9139 520.507 80.9039 520.507 85.1639C520.507 89.3639 519.607 93.3539 517.807 97.1339C516.007 100.914 513.367 104.004 509.887 106.404C506.407 108.744 502.117 109.914 497.017 109.914ZM497.017 102.444C500.257 102.444 502.957 101.634 505.117 100.014C507.337 98.3339 508.987 96.1739 510.067 93.5339C511.207 90.8939 511.777 88.1039 511.777 85.1639C511.777 82.1639 511.207 79.3739 510.067 76.7939C508.987 74.1539 507.337 72.0239 505.117 70.4039C502.957 68.7239 500.257 67.8839 497.017 67.8839C493.837 67.8839 491.137 68.7239 488.917 70.4039C486.697 72.0239 485.017 74.1539 483.877 76.7939C482.797 79.3739 482.257 82.1639 482.257 85.1639C482.257 88.1039 482.797 90.8939 483.877 93.5339C485.017 96.1739 486.697 98.3339 488.917 100.014C491.137 101.634 493.837 102.444 497.017 102.444ZM551.532 109.914C547.932 109.914 544.782 109.224 542.082 107.844C539.382 106.404 537.132 104.514 535.332 102.174C533.532 99.7739 532.182 97.1039 531.282 94.1639C530.382 91.2239 529.932 88.2239 529.932 85.1639C529.932 82.1039 530.382 79.1039 531.282 76.1639C532.182 73.2239 533.532 70.5839 535.332 68.2439C537.132 65.8439 539.382 63.9539 542.082 62.5739C544.782 61.1339 547.932 60.4139 551.532 60.4139C554.532 60.4139 557.052 60.8939 559.092 61.8539C561.132 62.8139 562.782 63.9539 564.042 65.2739C565.302 66.5339 566.262 67.7339 566.922 68.8739H567.462V40.6139H576.012V109.014H567.462V101.454H566.922C566.262 102.594 565.302 103.824 564.042 105.144C562.782 106.464 561.132 107.604 559.092 108.564C557.052 109.464 554.532 109.914 551.532 109.914ZM552.972 102.624C556.152 102.624 558.792 101.784 560.892 100.104C563.052 98.3639 564.642 96.1739 565.662 93.5339C566.742 90.8339 567.282 88.0439 567.282 85.1639C567.282 82.2239 566.742 79.4339 565.662 76.7939C564.642 74.1539 563.052 71.9939 560.892 70.3139C558.792 68.5739 556.152 67.7039 552.972 67.7039C549.792 67.7039 547.122 68.5739 544.962 70.3139C542.802 71.9939 541.182 74.1539 540.102 76.7939C539.082 79.4339 538.572 82.2239 538.572 85.1639C538.572 88.0439 539.082 90.8339 540.102 93.5339C541.182 96.1739 542.802 98.3639 544.962 100.104C547.122 101.784 549.792 102.624 552.972 102.624ZM610.333 109.914C606.433 109.914 603.043 109.224 600.163 107.844C597.343 106.404 595.003 104.484 593.143 102.084C591.343 99.6839 589.993 97.0439 589.093 94.1639C588.193 91.2239 587.743 88.2239 587.743 85.1639C587.743 82.1639 588.163 79.1939 589.003 76.2539C589.903 73.3139 591.253 70.6439 593.053 68.2439C594.913 65.8439 597.223 63.9539 599.983 62.5739C602.803 61.1339 606.133 60.4139 609.973 60.4139C614.053 60.4139 617.653 61.3439 620.773 63.2039C623.893 65.0639 626.353 67.8239 628.153 71.4839C629.953 75.1439 630.853 79.7339 630.853 85.2539V87.7739H596.383C596.563 90.4739 597.193 92.9639 598.273 95.2439C599.413 97.4639 601.003 99.2639 603.043 100.644C605.083 101.964 607.513 102.624 610.333 102.624C612.793 102.624 614.773 102.234 616.273 101.454C617.833 100.614 619.063 99.6539 619.963 98.5739C620.863 97.4939 621.463 96.5639 621.763 95.7839C622.123 94.9439 622.303 94.5239 622.303 94.5239H630.313C630.313 94.5239 630.163 95.0639 629.863 96.1439C629.563 97.1639 629.023 98.4239 628.243 99.9239C627.463 101.424 626.323 102.954 624.823 104.514C623.323 106.014 621.403 107.304 619.063 108.384C616.723 109.404 613.813 109.914 610.333 109.914ZM596.473 81.1139H622.483C622.363 77.9939 621.703 75.4739 620.503 73.5539C619.303 71.5739 617.773 70.1039 615.913 69.1439C614.053 68.1839 612.073 67.7039 609.973 67.7039C606.193 67.7039 603.103 68.9339 600.703 71.3939C598.303 73.7939 596.893 77.0339 596.473 81.1139ZM642.52 109.014L642.61 40.6139H651.07V109.014H642.52ZM670.229 109.914C668.549 109.914 667.139 109.344 665.999 108.204C664.919 107.004 664.379 105.624 664.379 104.064C664.379 102.444 664.919 101.064 665.999 99.9239C667.139 98.7839 668.549 98.2139 670.229 98.2139C671.909 98.2139 673.289 98.7839 674.369 99.9239C675.509 101.064 676.079 102.444 676.079 104.064C676.079 105.684 675.509 107.064 674.369 108.204C673.289 109.344 671.909 109.914 670.229 109.914ZM711.101 109.914C707.201 109.914 703.781 109.224 700.841 107.844C697.901 106.404 695.441 104.514 693.461 102.174C691.541 99.7739 690.071 97.1039 689.051 94.1639C688.091 91.2239 687.611 88.2239 687.611 85.1639C687.611 82.1039 688.091 79.1339 689.051 76.2539C690.011 73.3139 691.451 70.6439 693.371 68.2439C695.351 65.8439 697.811 63.9539 700.751 62.5739C703.691 61.1339 707.141 60.4139 711.101 60.4139C714.941 60.4139 718.121 60.9839 720.641 62.1239C723.161 63.2639 725.171 64.7039 726.671 66.4439C728.231 68.1239 729.371 69.8339 730.091 71.5739C730.871 73.2539 731.381 74.6639 731.621 75.8039C731.861 76.9439 731.981 77.5139 731.981 77.5139H723.701C723.701 77.5139 723.551 77.0339 723.251 76.0739C722.951 75.0539 722.381 73.9139 721.541 72.6539C720.701 71.3939 719.441 70.2839 717.761 69.3239C716.081 68.3039 713.861 67.7939 711.101 67.7939C707.801 67.7939 705.011 68.6339 702.731 70.3139C700.511 71.9339 698.831 74.0639 697.691 76.7039C696.611 79.3439 696.071 82.1639 696.071 85.1639C696.071 88.1639 696.611 90.9839 697.691 93.6239C698.831 96.2639 700.511 98.4239 702.731 100.104C705.011 101.724 707.801 102.534 711.101 102.534C713.861 102.534 716.081 102.054 717.761 101.094C719.441 100.074 720.701 98.9339 721.541 97.6739C722.381 96.4139 722.951 95.3039 723.251 94.3439C723.551 93.3239 723.701 92.8139 723.701 92.8139H731.981C731.981 92.8139 731.861 93.3839 731.621 94.5239C731.381 95.6639 730.871 97.1039 730.091 98.8439C729.371 100.524 728.231 102.234 726.671 103.974C725.171 105.654 723.161 107.064 720.641 108.204C718.121 109.344 714.941 109.914 711.101 109.914ZM765.397 109.914C760.297 109.914 756.007 108.744 752.527 106.404C749.047 104.004 746.407 100.914 744.607 97.1339C742.807 93.3539 741.907 89.3639 741.907 85.1639C741.907 80.9039 742.807 76.9139 744.607 73.1939C746.407 69.4139 749.047 66.3539 752.527 64.0139C756.007 61.6139 760.297 60.4139 765.397 60.4139C770.497 60.4139 774.787 61.6139 778.267 64.0139C781.747 66.3539 784.387 69.4139 786.187 73.1939C787.987 76.9139 788.887 80.9039 788.887 85.1639C788.887 89.3639 787.987 93.3539 786.187 97.1339C784.387 100.914 781.747 104.004 778.267 106.404C774.787 108.744 770.497 109.914 765.397 109.914ZM765.397 102.444C768.637 102.444 771.337 101.634 773.497 100.014C775.717 98.3339 777.367 96.1739 778.447 93.5339C779.587 90.8939 780.157 88.1039 780.157 85.1639C780.157 82.1639 779.587 79.3739 778.447 76.7939C777.367 74.1539 775.717 72.0239 773.497 70.4039C771.337 68.7239 768.637 67.8839 765.397 67.8839C762.217 67.8839 759.517 68.7239 757.297 70.4039C755.077 72.0239 753.397 74.1539 752.257 76.7939C751.177 79.3739 750.637 82.1639 750.637 85.1639C750.637 88.1039 751.177 90.8939 752.257 93.5339C753.397 96.1739 755.077 98.3339 757.297 100.014C759.517 101.634 762.217 102.444 765.397 102.444ZM799.651 109.014V61.3139H808.201V68.2439H808.561C809.041 67.3439 809.791 66.2939 810.811 65.0939C811.831 63.8339 813.211 62.7539 814.951 61.8539C816.751 60.8939 819.001 60.4139 821.701 60.4139C825.241 60.4139 828.211 61.2839 830.611 63.0239C833.071 64.7039 834.901 66.9839 836.101 69.8639H836.191C837.511 67.2239 839.371 65.0039 841.771 63.2039C844.231 61.3439 847.411 60.4139 851.311 60.4139C856.471 60.4139 860.431 62.1839 863.191 65.7239C866.011 69.2039 867.421 73.7039 867.421 79.2239V109.014H858.871V79.6739C858.871 76.1339 858.031 73.2839 856.351 71.1239C854.671 68.9039 852.241 67.7939 849.061 67.7939C846.301 67.7939 844.081 68.5439 842.401 70.0439C840.781 71.5439 839.611 73.4039 838.891 75.6239C838.171 77.8439 837.811 80.0639 837.811 82.2839V109.014H829.261V79.6739C829.261 76.1339 828.421 73.2839 826.741 71.1239C825.121 68.9039 822.691 67.7939 819.451 67.7939C816.691 67.7939 814.471 68.5439 812.791 70.0439C811.171 71.5439 810.001 73.4339 809.281 75.7139C808.561 77.9339 808.201 80.1239 808.201 82.2839V109.014H799.651Z" fill="#EA8100"/>
</svg>
