<svg width="153" height="153" viewBox="0 0 153 153" fill="none" xmlns="http://www.w3.org/2000/svg">
<path d="M76.0137 137.531L61.5176 152.027L48.79 139.3L63.2861 124.804L76.0137 137.531ZM103.237 139.3L90.5098 152.027L76.0137 137.531L88.7412 124.804L103.237 139.3ZM76.0137 112.076L63.2861 124.804L27.2236 88.7412L39.9512 76.0137L76.0137 112.076ZM124.804 88.7412L88.7412 124.804L76.0137 112.076L112.076 76.0137L124.804 88.7412ZM27.2236 88.7412L12.7275 103.237L0 90.5098L14.4961 76.0137L27.2236 88.7412ZM152.027 90.5098L139.3 103.237L124.804 88.7412L137.531 76.0137L152.027 90.5098ZM27.2236 63.2861L14.4961 76.0137L0 61.5176L12.7275 48.79L27.2236 63.2861ZM76.0137 39.9512L39.9512 76.0137L27.2236 63.2861L63.2861 27.2236L76.0137 39.9512ZM124.804 63.2861L112.076 76.0137L76.0137 39.9512L88.7412 27.2236L124.804 63.2861ZM152.027 61.5176L137.531 76.0137L124.804 63.2861L139.3 48.79L152.027 61.5176ZM76.0137 14.4961L63.2861 27.2236L48.79 12.7275L61.5176 0L76.0137 14.4961ZM103.237 12.7275L88.7412 27.2236L76.0137 14.4961L90.5098 0L103.237 12.7275Z" fill="#EA8100"/>
<rect x="90.5098" y="2.12132" width="15" height="125" transform="rotate(45 90.5098 2.12132)" stroke="#EA8100" stroke-width="3"/>
<rect x="139.3" y="50.9118" width="15" height="125" transform="rotate(45 139.3 50.9118)" stroke="#EA8100" stroke-width="3"/>
<rect x="2.12132" y="61.5183" width="15" height="125" transform="rotate(-45 2.12132 61.5183)" stroke="#EA8100" stroke-width="3"/>
<rect x="50.9114" y="12.728" width="15" height="125" transform="rotate(-45 50.9114 12.728)" stroke="#EA8100" stroke-width="3"/>
</svg>
